<svg width="24" height="25" viewBox="0 0 24 25" fill="none" xmlns="http://www.w3.org/2000/svg">
<path d="M15.7756 0.0193553C18.6287 0.0193561 18.4849 -0.148571 20.0623 0.504823C20.8105 0.858421 21.5392 1.2951 22.1314 1.88732C22.7236 2.47953 23.1934 3.1826 23.5139 3.95637C23.8344 4.73014 23.9993 5.55946 23.9993 6.39698C23.9993 7.2345 23.8344 8.06382 23.5139 8.83759C23.1934 9.61135 22.7252 10.3128 22.1314 10.9066C21.6497 11.3883 21.1462 11.9161 20.0623 12.0757C19.2083 12.2014 7.21447 12.2891 6.37695 12.2891L6.37695 10.0589C6.89356 10.0589 18.6499 10.2291 19.1272 10.0314C19.8446 9.73426 19.8478 9.73426 20.4034 9.17868C20.7687 8.81338 21.0585 8.37971 21.2562 7.90242C21.4539 7.42514 21.5556 6.91359 21.5556 6.39698C21.5556 5.88037 21.4539 5.36881 21.2562 4.89153C21.0585 4.41424 20.7687 3.98057 20.4034 3.61527C20.0381 3.24997 19.7214 3.00863 19.1272 2.7625C18.1772 2.369 17.7895 2.34965 13.5937 2.34965L15.7756 0.0193553Z" fill="#F1F1F1"/>
<path d="M3.35664 10.9091L13.5944 0H9.73426L0 10.9091L10.0699 24.3357H13.7622L3.35664 10.9091Z" fill="#94FC13"/>
</svg>
